<svg width="25" height="26" viewBox="0 0 25 26" fill="none" xmlns="http://www.w3.org/2000/svg">
<g clip-path="url(#clip0_21201_5848)">
<path d="M-0.00390625 25.3281H24.9961V0.328125H-0.00390625V25.3281Z" fill="#006FCF"/>
<path d="M9.05078 21.3736L18.936 21.3945L20.4885 19.6625L22.0521 21.388H24.9944V18.861L23.1516 16.8737L24.9944 14.9044V12.43L9.05078 12.4157V21.3736Z" fill="white"/>
<path fill-rule="evenodd" clip-rule="evenodd" d="M10.1172 20.3906V13.4006H16.044V15.0109H12.0361V16.1039H15.9485V17.6874H12.0361V18.761H16.044V20.3906L10.1172 20.3906Z" fill="#006FCF"/>
<path d="M22.5678 13.4007L20.558 15.6162L18.5541 13.4007H16.0156L19.2952 16.8916L16.0157 20.3906H18.4851L20.5037 18.1529L22.5433 20.3906H24.9971V20.2914L21.7874 16.8916L24.9971 13.4558V13.4007H22.5678Z" fill="#006FCF"/>
<path d="M21.3718 4.46395L20.5508 6.76042L19.7326 4.46395H14.988V7.52905L13.6381 4.46395H9.79482L5.84766 13.4219H24.9948V4.46395H21.3718Z" fill="white"/>
<path fill-rule="evenodd" clip-rule="evenodd" d="M10.7899 9.45203L11.72 7.22873L12.6495 9.45203H10.7899ZM10.5234 5.43388L7.42188 12.418H9.54913L10.1342 11.0195H13.3048L13.8895 12.418H16.0696L12.981 5.43388H10.5234Z" fill="#006FCF"/>
<path d="M16.043 12.4173L17.9237 12.4173V7.61994L19.7079 12.4173H21.3983L23.1463 7.63623V12.4336L24.9981 12.4173V5.43325H22.1203L20.5717 9.73718L19.0332 5.44355L16.043 5.43322V12.4173Z" fill="#006FCF"/>
</g>
<defs>
<clipPath id="clip0_21201_5848">
<rect width="25" height="25" fill="white" transform="translate(0 0.328125)"/>
</clipPath>
</defs>
</svg>
