<svg width="59" height="26" viewBox="0 0 59 26" fill="none" xmlns="http://www.w3.org/2000/svg">
<g clip-path="url(#clip0_21201_5863)">
<path d="M11.0966 3.58693C11.7879 2.72225 12.2569 1.56135 12.1333 0.375C11.1214 0.425344 9.88652 1.04266 9.17162 1.90791C8.52964 2.64897 7.96152 3.85848 8.10969 4.99507C9.24547 5.09358 10.3804 4.42729 11.0966 3.58693Z" fill="black"/>
<path d="M12.1208 5.21752C10.4711 5.11924 9.06851 6.15376 8.28067 6.15376C7.49248 6.15376 6.28605 5.26706 4.98124 5.29092C3.28296 5.31592 1.70716 6.27612 0.845343 7.8033C-0.927248 10.8585 0.377568 15.3903 2.10131 17.8785C2.93835 19.1095 3.94729 20.465 5.27654 20.4163C6.5325 20.3669 7.02482 19.603 8.55142 19.603C10.077 19.603 10.5205 20.4163 11.8499 20.3916C13.2287 20.3669 14.0906 19.16 14.9277 17.9277C15.888 16.5244 16.2811 15.1695 16.3058 15.095C16.281 15.0704 13.6472 14.06 13.6228 11.0303C13.5979 8.49344 15.6906 7.28667 15.7892 7.2119C14.6075 5.46419 12.7609 5.26706 12.1208 5.21752Z" fill="black"/>
<path d="M26.4788 1.78516C30.0643 1.78516 32.561 4.25672 32.561 7.85511C32.561 11.4663 30.0128 13.9508 26.3889 13.9508H22.419V20.2639H19.5508V1.78516H26.4788ZM22.4189 11.5432H25.71C28.2072 11.5432 29.6284 10.1987 29.6284 7.86795C29.6284 5.53745 28.2072 4.20557 25.7228 4.20557H22.4189V11.5432Z" fill="black"/>
<path d="M33.3125 16.4369C33.3125 14.0805 35.1181 12.6335 38.3198 12.4542L42.0077 12.2366V11.1994C42.0077 9.70112 40.996 8.80468 39.306 8.80468C37.7048 8.80468 36.706 9.57291 36.463 10.7768H33.8506C34.0042 8.34356 36.0786 6.55078 39.4083 6.55078C42.6736 6.55078 44.7609 8.27957 44.7609 10.9815V20.2657H42.11V18.0503H42.0462C41.2651 19.5487 39.5618 20.4962 37.7947 20.4962C35.1567 20.4962 33.3125 18.857 33.3125 16.4369ZM42.0076 15.2204V14.1575L38.6908 14.3624C37.0389 14.4777 36.1041 15.2077 36.1041 16.3602C36.1041 17.5382 37.0773 18.3066 38.5628 18.3066C40.4964 18.3064 42.0076 16.9746 42.0076 15.2204Z" fill="black"/>
<path d="M47.2616 25.2206V22.9796C47.4662 23.0307 47.927 23.0307 48.1577 23.0307C49.4382 23.0307 50.1298 22.493 50.5522 21.1099C50.5522 21.0843 50.7957 20.2903 50.7957 20.2775L45.9297 6.79297H48.9259L52.3327 17.7548H52.3836L55.7904 6.79297H58.7097L53.6639 20.9689C52.5118 24.2346 51.1799 25.2846 48.3883 25.2846C48.1577 25.2846 47.466 25.2589 47.2616 25.2206Z" fill="black"/>
</g>
<defs>
<clipPath id="clip0_21201_5863">
<rect width="58.8303" height="25" fill="white" transform="translate(0 0.328125)"/>
</clipPath>
</defs>
</svg>
