<svg width="65" height="26" viewBox="0 0 65 26" fill="none" xmlns="http://www.w3.org/2000/svg">
<path d="M30.4122 12.4898V19.82H28.0859V1.71875H34.2529C35.8159 1.71875 37.1486 2.23979 38.239 3.28174C39.3538 4.3237 39.9111 5.59585 39.9111 7.09821C39.9111 8.63694 39.3538 9.9091 38.239 10.9389C37.1607 11.9688 35.828 12.4777 34.2529 12.4777H30.4122V12.4898ZM30.4122 3.94808V10.2605H34.3014C35.2222 10.2605 35.9977 9.94548 36.6034 9.32754C37.2213 8.70959 37.5363 7.95848 37.5363 7.11033C37.5363 6.27432 37.2213 5.53521 36.6034 4.91739C35.9976 4.27519 35.2343 3.96021 34.3014 3.96021H30.4122V3.94808Z" fill="#383E41"/>
<path d="M45.9936 7.02734C47.714 7.02734 49.071 7.48774 50.0645 8.40853C51.058 9.32932 51.5547 10.5893 51.5547 12.1887V19.8218H49.3375V18.1014H49.2406C48.2834 19.5189 46.9991 20.2216 45.3999 20.2216C44.0308 20.2216 42.8918 19.8218 41.971 19.01C41.0502 18.1983 40.5898 17.1926 40.5898 15.9811C40.5898 14.6968 41.0745 13.6791 42.0438 12.9278C43.0131 12.1646 44.3095 11.789 45.9209 11.789C47.3021 11.789 48.4411 12.0434 49.3255 12.5522V12.0192C49.3255 11.2074 49.0105 10.529 48.3683 9.95952C47.7261 9.39009 46.975 9.11138 46.1147 9.11138C44.8183 9.11138 43.7885 9.65655 43.0372 10.7592L40.9896 9.47487C42.1165 7.8391 43.7885 7.02734 45.9936 7.02734ZM42.9889 16.0173C42.9889 16.6231 43.2433 17.132 43.7642 17.5318C44.2731 17.9317 44.879 18.1376 45.5695 18.1376C46.551 18.1376 47.4233 17.7741 48.1866 17.0471C48.95 16.3202 49.3376 15.472 49.3376 14.4907C48.6106 13.9213 47.6051 13.6304 46.3087 13.6304C45.3636 13.6304 44.5761 13.8606 43.946 14.3089C43.3038 14.7814 42.9889 15.351 42.9889 16.0173Z" fill="#383E41"/>
<path d="M64.2029 7.42578L56.4487 25.2604H54.0496L56.9332 19.0207L51.8203 7.42578H54.3525L58.0358 16.3189H58.0843L61.6706 7.42578H64.2029Z" fill="#383E41"/>
<path d="M20.9657 8.82812H11.2148V12.8264L16.8306 12.8276C16.6028 14.158 15.8698 15.292 14.7467 16.048V16.0488C14.747 16.0485 14.7475 16.0483 14.7479 16.048L14.6468 18.4378L18.0907 18.6409C18.0902 18.6412 18.0897 18.6417 18.0893 18.6421C20.0412 16.8357 21.1596 14.1653 21.1596 11.0103C21.1595 10.2518 21.0917 9.52602 20.9657 8.82812Z" fill="#0085F7"/>
<path d="M14.7434 16.0483C14.7431 16.0485 14.7426 16.0487 14.7422 16.049C13.8119 16.6761 12.614 17.0429 11.2129 17.0429C8.50495 17.0429 6.2078 15.2183 5.38515 12.7588H5.38478C5.3849 12.7591 5.38502 12.7596 5.38515 12.76L2.51002 12.3047L1.9375 15.4348C3.64604 18.8244 7.15693 21.1502 11.213 21.1502C14.0158 21.1502 16.3707 20.2287 18.085 18.6422C18.0855 18.6418 18.086 18.6414 18.0864 18.641L14.7434 16.0483Z" fill="#00A94B"/>
<path d="M5.06317 10.7743C5.06317 10.0837 5.17826 9.41613 5.38792 8.78853L4.49015 6.11328H1.93965C1.23334 7.51514 0.835938 9.09744 0.835938 10.7743C0.835938 12.4512 1.23458 14.0335 1.93965 15.4353L1.94015 15.4349L5.38792 12.7601C5.38779 12.7597 5.38767 12.7593 5.38755 12.7588C5.17814 12.1317 5.06317 11.4645 5.06317 10.7743Z" fill="#FFBB00"/>
<path d="M11.2135 0.398438C7.15829 0.398438 3.64592 2.72468 1.9375 6.11477L5.38564 8.79002C6.20829 6.33049 8.50545 4.50586 11.2134 4.50586C12.7436 4.50586 14.114 5.03297 15.1959 6.06279L18.1583 3.10289C16.3592 1.42703 14.0135 0.398438 11.2135 0.398438Z" fill="#FF4031"/>
</svg>
