<svg width="41" height="26" viewBox="0 0 41 26" fill="none" xmlns="http://www.w3.org/2000/svg">
<g clip-path="url(#clip0_21201_5883)">
<path d="M26.0483 3H15.0977V22.6528H26.0483V3Z" fill="#FF5F00"/>
<path d="M15.7932 12.8271C15.7932 9.00766 17.5661 5.36183 20.5558 3.00072C15.1326 -1.27011 7.276 -0.332613 3.00003 5.11878C-1.27594 10.5354 -0.337309 18.3827 5.12063 22.6535C9.67471 26.2299 16.0365 26.2299 20.5906 22.6535C17.5661 20.2924 15.7932 16.6466 15.7932 12.8271Z" fill="#EB001B"/>
<path d="M40.8225 12.8271C40.8225 19.7368 35.2255 25.3271 28.3074 25.3271C25.4916 25.3271 22.78 24.3896 20.5898 22.6535C26.013 18.3827 26.9516 10.5354 22.6757 5.08405C22.0499 4.32016 21.3547 3.591 20.5898 3.00072C26.013 -1.27011 33.9044 -0.332613 38.1456 5.11878C39.8838 7.30628 40.8225 10.0146 40.8225 12.8271Z" fill="#F79E1B"/>
<path d="M39.6418 20.572V20.1554H39.8156V20.0859H39.3984V20.1554H39.5723V20.572H39.6418ZM40.4414 20.572V20.0859H40.3023L40.1632 20.4332L40.0242 20.0859H39.8851V20.572H39.9894V20.1901L40.1285 20.5026H40.2328L40.3718 20.1901V20.572H40.4414Z" fill="#F79E1B"/>
</g>
<defs>
<clipPath id="clip0_21201_5883">
<rect width="40.5" height="25" fill="white" transform="translate(0.320312 0.328125)"/>
</clipPath>
</defs>
</svg>
