<svg width="36" height="64" viewBox="0 0 36 64" fill="none" xmlns="http://www.w3.org/2000/svg">
<path d="M13.9457 45.6583C12.4007 49.6641 10.4182 53.487 8.03411 57.0577M15.9093 49.2751L13.4623 57.4806M19.2925 49.8612C19.6814 52.5396 20.2835 55.1827 21.093 57.7654M21.4559 44.3834C22.7092 48.5612 24.6026 52.5195 27.0686 56.1171M34.0903 57.8459C31.124 54.7794 28.3681 51.4599 26.3814 47.6844C24.3948 43.9089 23.2041 39.6388 23.4982 35.3836C23.6593 33.0622 24.2518 30.7952 24.6079 28.4956C24.964 26.196 25.0731 23.7869 24.2917 21.5952C23.6424 19.7741 22.3957 18.15 22.1395 16.2335C21.8173 13.8223 23.1207 11.5251 24.3763 9.4414C23.5588 8.45074 23.0959 7.21528 23.0611 5.93137C23.0746 4.75871 23.2371 3.59253 23.5445 2.46081C23.0492 2.18534 22.4816 2.06758 21.9176 2.12326C20.9018 4.28566 19.5414 6.2686 17.8895 7.99453C16.154 6.31941 14.8256 4.2687 14.0065 2C13.3921 2.10201 12.7932 2.28219 12.2245 2.53613C12.5399 3.67389 12.7061 4.84784 12.7187 6.02844C12.7023 7.268 12.2643 8.46502 11.4769 9.42247C12.8955 11.5122 14.3831 13.9339 13.8035 16.3938C13.5235 17.5821 12.7864 18.602 12.2555 19.7012C10.8767 22.5567 10.9186 25.8851 11.298 29.033C11.6775 32.1809 12.3659 35.3232 12.1802 38.4884C11.9618 42.2006 10.5395 45.7614 8.61213 48.9416C6.68471 52.1217 4.25742 54.9643 1.90625 57.7344C2.65653 58.7239 3.64818 59.5043 4.78632 60.0009C5.92447 60.4976 7.17102 60.6938 8.4067 60.5709C9.46406 60.4533 10.5045 60.0988 11.5651 60.1766C13.0224 60.2829 14.2884 61.1812 15.6737 61.6432C17.2517 62.1631 18.9621 62.1135 20.5073 61.503C21.7157 61.0196 22.8142 60.1987 24.1056 60.0586C25.2838 59.9313 26.4374 60.3937 27.61 60.5564C28.8328 60.7096 30.0743 60.54 31.2112 60.0644C32.3481 59.5889 33.3407 58.8241 34.0903 57.8459Z" stroke="#292929" stroke-width="2.5" stroke-linecap="round" stroke-linejoin="round"/>
</svg>
