<svg width="61" height="60" viewBox="0 0 61 60" fill="none" xmlns="http://www.w3.org/2000/svg">
<path d="M60.3359 30C60.3359 46.5419 46.8778 60 30.3359 60C13.7941 60 0.335938 46.5419 0.335938 30C0.335938 28.9638 1.17469 28.125 2.21094 28.125C3.24719 28.125 4.08594 28.9638 4.08594 30C4.08594 44.4744 15.8616 56.25 30.3359 56.25C44.8103 56.25 56.5859 44.4744 56.5859 30C56.5859 15.5256 44.8103 3.75 30.3359 3.75C23.3591 3.75 16.8822 6.46187 12.0097 11.25H19.0859C20.1222 11.25 20.9609 12.0887 20.9609 13.125C20.9609 14.1613 20.1222 15 19.0859 15H7.83594C6.79969 15 5.96094 14.1613 5.96094 13.125V1.875C5.96094 0.83875 6.79969 0 7.83594 0C8.87219 0 9.71094 0.83875 9.71094 1.875V8.27125C15.2428 2.99125 22.5116 0 30.3359 0C46.8778 0 60.3359 13.4581 60.3359 30ZM47.2109 22.5V39.375C47.2109 40.1569 46.7259 40.8562 45.9953 41.1312L30.9953 46.7562C30.7828 46.835 30.5591 46.875 30.3359 46.875C30.1128 46.875 29.8891 46.835 29.6766 46.7562L14.6766 41.1312C13.9459 40.8562 13.4609 40.1569 13.4609 39.375V22.5C13.4609 21.7181 13.9459 21.0187 14.6766 20.7437L29.6766 15.1188C30.1016 14.9613 30.5703 14.9613 30.9947 15.1188L45.9947 20.7437C46.7259 21.0187 47.2109 21.7181 47.2109 22.5ZM20.6753 22.5L30.3359 26.1219L39.9966 22.5L30.3359 18.8781L20.6753 22.5ZM17.2109 38.075L28.4609 42.2937V29.425L17.2109 25.2063V38.075ZM43.4609 38.075V25.2063L32.2109 29.425V42.2937L43.4609 38.075Z" fill="black"/>
</svg>
