<svg width="60" height="60" viewBox="0 0 60 60" fill="none" xmlns="http://www.w3.org/2000/svg">
<path d="M59.9814 28.2921C58.4565 21.6137 54.6636 15.5527 49.3022 11.2257C44.0553 6.98963 37.4926 4.58963 30.747 4.42531V0.746888C30.747 0.334855 30.4121 0 30.0001 0C29.5881 0 29.2532 0.334855 29.2532 0.746888V4.42531C22.5076 4.59087 15.9449 6.99087 10.698 11.2257C5.33662 15.5527 1.54492 21.6137 0.0187769 28.2921C-0.0621359 28.6469 0.124586 29.0091 0.460686 29.1485C0.554047 29.1871 0.651142 29.2058 0.746993 29.2058C0.9972 29.2058 1.23869 29.0801 1.37936 28.8573C3.46567 25.5473 7.0445 23.5718 10.952 23.5718C14.4686 23.5718 17.725 25.1664 19.886 27.9473C20.0279 28.129 20.2445 28.2361 20.476 28.2361C20.7076 28.2361 20.9242 28.129 21.0661 27.9473C23.2271 25.1664 26.4835 23.5718 30.0001 23.5718C33.5167 23.5718 36.7731 25.1664 38.9354 27.9473C39.0773 28.129 39.2939 28.2361 39.5254 28.2361C39.757 28.2361 39.9736 28.129 40.1155 27.9473C42.2765 25.1664 45.5329 23.5718 49.0495 23.5718C52.957 23.5718 56.5345 25.5473 58.6221 28.8573C58.8163 29.1647 59.2047 29.288 59.5408 29.1485C59.8756 29.0079 60.0623 28.6469 59.9814 28.2921ZM49.0482 22.078C45.3748 22.078 41.9528 23.6141 39.5242 26.3241C37.0955 23.6141 33.6735 22.078 30.0001 22.078C26.3267 22.078 22.9047 23.6141 20.476 26.3241C18.0474 23.6141 14.6254 22.078 10.952 22.078C7.7528 22.078 4.74658 23.2481 2.43496 25.3145C6.53288 13.7328 17.425 5.90913 30.0001 5.90913C42.5752 5.90913 53.4673 13.734 57.5653 25.3145C55.2536 23.2481 52.2487 22.078 49.0482 22.078ZM44.613 47.0477C42.3872 47.0477 40.4192 48.1768 39.2528 49.8934L34.6321 47.9104L34.2773 46.7863C34.3918 46.6668 34.5051 46.5436 34.6146 46.4141C35.7126 45.112 36.4632 43.3743 36.757 41.4734C37.6196 41.1809 38.2445 40.3606 38.2445 39.4071C38.2445 38.7734 37.9657 38.1797 37.5026 37.7714C38.1611 34.7714 37.4005 32.5905 36.6175 31.2622C35.6067 29.5469 33.9574 28.2461 32.0951 27.6934C29.4337 26.9042 27.0163 27.8278 25.9781 29.9515C25.0856 29.8158 24.3375 29.9975 23.7474 30.4954C22.5238 31.5274 22.164 33.7544 22.596 37.688C22.0731 38.095 21.757 38.7224 21.757 39.4071C21.757 40.3618 22.3831 41.1822 23.2445 41.4734C23.5383 43.373 24.2889 45.1108 25.3868 46.4141C25.4964 46.5436 25.6096 46.6668 25.7242 46.7863L25.3694 47.9104L18.1719 50.9988C17.0652 51.4743 16.3258 52.429 16.1428 53.6191L15.2964 59.1398C15.2628 59.3552 15.3262 59.5743 15.4682 59.7398C15.6101 59.9054 15.8167 60 16.0345 60H43.9682C44.0254 60 44.0814 59.9925 44.1362 59.9801C44.2943 59.9913 44.4536 60 44.6142 60C48.1856 60 51.0897 57.0946 51.0897 53.5245C51.0897 49.9544 48.1843 47.0477 44.613 47.0477ZM24.6574 40.7602C24.6175 40.3842 24.3038 40.0979 23.9254 40.0917C23.552 40.0855 23.2495 39.778 23.2495 39.4046C23.2495 39.1307 23.4213 38.8743 23.6777 38.7685C23.9877 38.6403 24.1744 38.3216 24.1333 37.988C23.598 33.59 24.1507 32.1062 24.7096 31.6357C24.7918 31.566 24.9885 31.4004 25.4316 31.4004C25.6358 31.4004 25.8935 31.4353 26.2159 31.5324C26.6043 31.6494 27.015 31.434 27.1408 31.0494C27.859 28.8498 30.03 28.6369 31.6706 29.1237C34.1316 29.8531 37.2972 32.7946 35.9329 37.9058C35.8395 38.2581 36.0126 38.6266 36.3449 38.7784C36.5914 38.8905 36.7507 39.1369 36.7507 39.4046C36.7507 39.778 36.447 40.0855 36.0748 40.0917C35.6976 40.0979 35.3827 40.3842 35.3428 40.7602C34.952 44.456 32.6553 47.2432 30.0001 47.2432C27.3449 47.2444 25.0482 44.4573 24.6574 40.7602ZM16.9034 58.5062L17.6179 53.8456C17.7225 53.166 18.1271 52.6419 18.7594 52.3705L26.2706 49.1465C26.4698 49.0606 26.6229 48.8925 26.6877 48.6846L26.9628 47.8145C27.8976 48.417 28.9345 48.7357 29.9989 48.7357C31.0632 48.7357 32.1001 48.4158 33.035 47.8145L33.3101 48.6846C33.376 48.8913 33.5279 49.0606 33.7271 49.1465L38.5594 51.2203C38.2856 51.9361 38.135 52.7116 38.135 53.5232C38.135 55.5249 39.0474 57.3162 40.4789 58.505H16.9034V58.5062ZM44.613 58.5062C41.8657 58.5062 39.63 56.2705 39.63 53.5245C39.63 50.7772 41.8657 48.5427 44.613 48.5427C47.3603 48.5427 49.5947 50.7784 49.5947 53.5245C49.596 56.2705 47.3603 58.5062 44.613 58.5062ZM47.6752 51.2788C47.9665 51.5701 47.9665 52.0432 47.6752 52.3357L44.2408 55.7701C44.0951 55.9158 43.9034 55.9892 43.713 55.9892C43.5213 55.9892 43.3308 55.9158 43.1852 55.7701L41.552 54.1369C41.2607 53.8456 41.2607 53.3726 41.552 53.0801C41.8433 52.7888 42.3163 52.7888 42.6076 53.0801L43.713 54.1855L46.6196 51.2788C46.9109 50.9863 47.3839 50.9863 47.6752 51.2788Z" fill="black"/>
</svg>
