<svg width="60" height="60" viewBox="0 0 60 60" fill="none" xmlns="http://www.w3.org/2000/svg">
<path d="M37.082 39.6126H45.819C49.7546 39.6126 52.9564 36.4108 52.9564 32.4746V19.478C52.9564 15.5424 49.7546 12.3406 45.819 12.3406H43.0451C42.6996 12.3406 42.4201 12.62 42.4201 12.9656C42.4201 13.3111 42.6996 13.5906 43.0451 13.5906H45.819C49.0655 13.5906 51.7064 16.2315 51.7064 19.478V32.4746C51.7064 35.7211 49.0655 38.3626 45.819 38.3626H37.082C34.4392 38.3626 32.2896 40.5123 32.2896 43.1545V45.2481L30.8419 43.8008C30.5977 43.5567 30.2022 43.5567 29.9581 43.8008C29.714 44.0449 29.714 44.4404 29.9581 44.6846L32.472 47.1978C32.7114 47.4385 33.1109 47.4454 33.3573 47.1978L35.8712 44.6846C36.1154 44.4404 36.1154 44.0449 35.8712 43.8008C35.6271 43.5567 35.2316 43.5567 34.9875 43.8008L33.5398 45.2481V43.1545C33.5394 41.2013 35.1288 39.6126 37.082 39.6126Z" fill="black"/>
<path d="M37.9882 19.8137C38.269 19.915 38.5906 19.7991 38.742 19.536C39.2375 18.6693 39.6313 17.7141 39.9443 16.6155C40.0292 16.3176 39.8833 16.0033 39.6019 15.8751C38.4691 15.3594 37.7367 14.2217 37.7367 12.9753C37.7367 11.718 38.4691 10.5725 39.6019 10.0566C39.8796 9.93025 40.0254 9.62199 39.9474 9.32729C39.6758 8.3068 39.2711 7.31496 38.7439 6.38052C38.5925 6.1114 38.2677 5.99352 37.9785 6.1028C36.806 6.54779 35.4767 6.26205 34.5905 5.37583C33.7085 4.49821 33.4259 3.16946 33.8721 1.9903C33.9814 1.70103 33.8629 1.37509 33.5926 1.22432C32.6509 0.696331 31.6578 0.291766 30.6416 0.0213484C30.3431 -0.0562169 30.0379 0.0891296 29.9123 0.366856C29.3946 1.50334 28.2589 2.23821 27.0186 2.23821C25.7577 2.23821 24.6127 1.50452 24.1012 0.368742C23.9743 0.0873613 23.6581 -0.0621109 23.3615 0.0245312C22.2751 0.330902 21.3126 0.723326 20.4197 1.22444C20.1506 1.37461 20.0315 1.69926 20.1395 1.98795C20.5814 3.17323 20.2995 4.50316 19.4206 5.37724C18.527 6.27019 17.2276 6.54662 16.0307 6.10232C15.7432 5.99494 15.4191 6.11211 15.2677 6.38064C14.7403 7.31626 14.3358 8.30751 14.0648 9.32741C13.9872 9.62035 14.1307 9.92742 14.4059 10.055C15.5589 10.5903 16.2748 11.709 16.2748 12.9755C16.2748 14.2242 15.5576 15.3362 14.4034 15.8783C14.1276 16.0077 13.9853 16.3177 14.0665 16.6112C14.3491 17.6275 14.7532 18.6095 15.2664 19.53C15.4153 19.7967 15.7346 19.9163 16.0209 19.8144C17.2348 19.3847 18.5373 19.6655 19.4206 20.5487C20.2995 21.4276 20.5814 22.7575 20.1395 23.9373C20.0302 24.2284 20.1524 24.5555 20.4251 24.705C21.1631 25.1081 23.0493 25.9312 23.5312 25.9312C23.7697 25.9312 23.9944 25.7939 24.0988 25.5686C24.6327 24.412 25.7521 23.6936 27.0186 23.6936C28.2613 23.6936 29.3971 24.4279 29.9117 25.5644C30.0374 25.8421 30.3438 25.9861 30.6416 25.9105C31.6657 25.6383 32.66 25.2311 33.5957 24.7002C33.8636 24.5482 33.9808 24.2235 33.8721 23.9354C33.4278 22.7599 33.7104 21.4305 34.5916 20.5486C35.4657 19.6745 36.7993 19.3852 37.9882 19.8137ZM32.5397 23.8493C31.9758 24.1374 31.3917 24.3773 30.7941 24.5646C29.9964 23.261 28.5676 22.4437 27.0185 22.4437C25.4432 22.4437 24.0333 23.242 23.2234 24.5592C22.6277 24.3652 22.0417 24.1253 21.4728 23.842C21.8287 22.3485 21.3972 20.7579 20.3041 19.6648C19.2037 18.5644 17.6423 18.1334 16.1257 18.4838C15.8437 17.9253 15.605 17.3442 15.4127 16.7492C16.711 15.9355 17.5246 14.5067 17.5246 12.9755C17.5246 11.4258 16.7092 9.98778 15.4085 9.17912C15.5959 8.58217 15.8345 7.99808 16.1214 7.43414C17.6144 7.78695 19.2086 7.35598 20.3029 6.26229C21.3979 5.17343 21.83 3.58039 21.4717 2.08025C22.0173 1.80617 22.5953 1.57242 23.2203 1.37226C24.018 2.67295 25.4547 3.48833 27.0185 3.48833C28.5651 3.48833 29.9939 2.67106 30.7935 1.36672C31.388 1.55344 31.9721 1.79215 32.5391 2.07895C32.1765 3.57485 32.6092 5.16848 33.7079 6.26099C34.8077 7.36023 36.4002 7.79544 37.8912 7.43532C38.1774 7.99808 38.4156 8.58029 38.6023 9.17605C37.3016 9.97623 36.4868 11.4141 36.4868 12.9755C36.4868 14.5245 37.2991 15.9533 38.5967 16.7529C38.3941 17.3804 38.1603 17.9528 37.8899 18.4845C36.3873 18.1397 34.7955 18.5772 33.7079 19.6649C32.61 20.7622 32.1784 22.3564 32.5397 23.8493Z" fill="black"/>
<path d="M27.0125 7.96259C24.2482 7.96259 21.9998 10.2056 21.9998 12.9625C21.9998 15.7231 24.2482 17.9691 27.0125 17.9691C29.7657 17.9691 32.0057 15.723 32.0057 12.9625C32.0057 10.2056 29.7657 7.96259 27.0125 7.96259ZM27.0125 16.7192C24.9379 16.7192 23.2498 15.034 23.2498 12.9625C23.2498 10.8946 24.9379 9.21248 27.0125 9.21248C29.0767 9.21248 30.7558 10.8946 30.7558 12.9625C30.7557 15.0341 29.0766 16.7192 27.0125 16.7192Z" fill="black"/>
<path d="M9.17486 36.2112H9.82332C10.5334 36.2112 11.1927 35.8599 11.5979 35.2996C13.9144 35.2139 15.6978 35.4007 16.5073 35.8267C17.7135 36.4617 19.3055 37.2991 20.4867 37.9257C22.4748 38.9823 24.8657 38.9973 26.8788 37.9604L39.2023 31.5951C40.431 30.9813 40.7609 29.348 39.8632 28.2644C39.2547 27.5424 38.255 27.3031 37.3755 27.6657L31.1921 30.2518C30.9028 29.4631 30.1795 28.8583 29.2946 28.7649L25.1827 28.3334C24.1084 28.2193 23.102 27.9226 22.1926 27.4502C18.5989 25.5838 16.1252 24.9484 14.8429 25.5594C13.7507 26.0786 12.352 26.3068 11.4455 26.4057C11.0309 25.9517 10.4503 25.6864 9.82344 25.6864H9.17651C8.75816 25.0778 8.05842 24.6768 7.26556 24.6768H2.79907C1.25554 24.6768 0 25.9323 0 27.4753V34.4205C0 35.9634 1.25543 37.219 2.79907 37.219H7.26556C8.05724 37.2188 8.75639 36.8188 9.17486 36.2112ZM15.3798 26.688C16.2367 26.2785 18.5708 26.9779 21.6163 28.5599C22.6654 29.1043 23.8209 29.4462 25.0513 29.5762L29.1632 30.0078C29.6357 30.0581 30.005 30.4295 30.0672 30.8781C29.387 31.4785 26.6434 33.4286 21.4167 31.4457C21.0975 31.3218 20.7337 31.4847 20.611 31.8083C20.4883 32.1305 20.6508 32.4918 20.9736 32.614C24.3787 33.9068 28.5402 34.1226 31.057 31.6636L37.8557 28.82C38.2268 28.6662 38.651 28.7656 38.9037 29.066C39.2848 29.5243 39.152 30.2236 38.6358 30.4808L26.3056 36.8498C24.6601 37.6976 22.7033 37.6884 21.0725 36.8217C19.7329 36.1112 18.3899 35.4055 17.0895 34.7208C15.9183 34.1045 13.8198 33.9936 12.0204 34.0341C12.0204 27.0358 12.0349 27.8365 12.0032 27.5966C13.0568 27.4573 14.316 27.1938 15.3798 26.688ZM9.57813 26.9364H9.82332C10.3449 26.9364 10.773 27.3541 10.773 27.886V34.0109C10.773 34.515 10.357 34.9612 9.82332 34.9612H9.57801C9.58674 34.5642 9.58721 27.3347 9.57813 26.9364ZM1.24977 34.4205V27.4753C1.24977 26.6214 1.94491 25.9269 2.79883 25.9269H7.26532C7.84564 25.9269 8.33402 26.4064 8.33402 26.9956V34.9001C8.33402 35.4608 7.875 35.9688 7.26532 35.9688H2.79883C1.94503 35.9688 1.24977 35.2743 1.24977 34.4205Z" fill="black"/>
<path d="M57.6804 45.948H53.2139C52.3553 45.948 51.5955 46.3447 51.0817 46.9551H50.1726C49.5378 46.9551 48.9558 47.2249 48.5501 47.6798C47.6435 47.5806 46.248 47.3521 45.1549 46.8348C43.8768 46.2227 41.4025 46.8556 37.8039 48.7189C36.8927 49.1914 35.8887 49.488 34.8199 49.6021L30.7006 50.0336C29.8175 50.127 29.0961 50.7337 28.8085 51.5253L22.6197 48.9319C21.7469 48.5791 20.7508 48.8178 20.1252 49.5423C19.2249 50.6512 19.5882 52.2585 20.7923 52.8663L33.1256 59.2358C35.1403 60.2685 37.533 60.2544 39.5159 59.1943C40.9318 58.443 42.5303 57.6007 43.4856 57.0972C44.3057 56.6709 46.1287 56.4793 48.3987 56.5732C48.8052 57.1323 49.4631 57.48 50.1726 57.48H51.0786C51.5926 58.0925 52.3536 58.4907 53.2139 58.4907H57.6804C58.959 58.4907 59.9991 57.4501 59.9991 56.1714V48.2667C59.9991 46.9881 58.9592 45.948 57.6804 45.948ZM47.9814 55.3074C46.3728 55.2681 44.1384 55.3503 42.8667 56.0102C41.9469 56.4948 40.3473 57.3383 38.9282 58.0909C37.3054 58.9575 35.3491 58.9704 33.6975 58.1245L21.3612 51.753C20.8253 51.4824 20.7276 50.7837 21.0835 50.3449C21.3466 50.0403 21.7775 49.9397 22.1437 50.0874L28.9765 52.9512C31.6366 55.1093 35.9839 55.8213 40.4864 53.8746C40.8031 53.7379 40.949 53.3699 40.8123 53.0531C40.6756 52.7364 40.3075 52.5899 39.9908 52.7272C34.5727 55.0686 30.8769 52.8035 29.942 52.1175C30.0169 51.6816 30.3748 51.325 30.832 51.2764L34.9512 50.8449C36.1762 50.7149 37.3291 50.3731 38.3789 49.8286C41.4269 48.2503 43.7591 47.5496 44.6178 47.964C45.6858 48.4688 46.9454 48.7321 47.9985 48.8713C47.9613 49.1602 47.9865 48.8884 47.979 55.2858C47.9791 55.293 47.9813 55.3 47.9814 55.3074ZM50.4692 56.2299H50.1726C49.66 56.2299 49.229 55.8259 49.229 55.2857V49.1547C49.229 48.6528 49.631 48.2051 50.1726 48.2051H50.4696C50.3861 48.629 50.3851 55.8006 50.4692 56.2299ZM58.7492 56.1713C58.7492 56.7609 58.2701 57.2406 57.6805 57.2406H53.214C52.3601 57.2406 51.6649 56.5455 51.6649 55.6915V48.7471C51.6649 47.8932 52.3601 47.198 53.214 47.198H57.6805C58.2701 47.198 58.7492 47.6771 58.7492 48.2667V56.1713Z" fill="black"/>
</svg>
