<svg width="56" height="60" viewBox="0 0 56 60" fill="none" xmlns="http://www.w3.org/2000/svg">
<path fill-rule="evenodd" clip-rule="evenodd" d="M15.0358 53.5316L15.8057 54.8918C15.8061 54.8927 15.8065 54.8935 15.807 54.8942C16.4526 56.0427 16.0433 57.5081 14.9013 58.1531L12.1861 59.6921C12.1851 59.6926 12.1841 59.6932 12.1831 59.6937C11.0347 60.3394 9.56925 59.9299 8.924 58.7875L0.939186 44.6786C0.287646 43.5292 0.697126 42.0623 1.84053 41.4166L4.55895 39.8776L4.55979 39.8771C5.70259 39.2316 7.16861 39.6374 7.81931 40.7802L7.82064 40.7823L8.44532 41.8863L15.5512 37.7723C17.6903 36.5351 19.8761 35.7282 22.2255 36.4911C24.5114 37.2324 28.2431 38.8301 32.0517 39.5183C32.0944 39.526 32.1365 39.5366 32.1778 39.5499C34.1028 40.1733 35.2731 42.1194 34.7474 44.0742C34.6674 44.3721 34.5617 44.6492 34.4317 44.9035C34.8427 44.7859 35.245 44.6144 35.6404 44.384L45.3222 38.7451C48.8227 36.7058 51.1563 36.9267 52.4773 37.813C53.6142 38.5759 54.1412 39.8782 54.1072 41.1569C54.0728 42.4486 53.4573 43.6826 52.4444 44.3064L34.8761 55.123C33.0267 56.2645 31.001 56.5323 28.9023 55.9724L28.9012 55.9722L16.5446 52.6605L15.0358 53.5316ZM9.39868 43.5708L14.0825 51.8471L15.9239 50.7839C16.1462 50.6555 16.4104 50.6208 16.6583 50.6872L29.4014 54.1024C30.9672 54.5201 32.4797 54.3275 33.8596 53.4759L33.8605 53.4754L51.4294 42.6583C51.8827 42.3791 52.1175 41.8173 52.1649 41.2427C52.2381 40.356 51.8229 39.3763 50.7261 39.1465C49.7015 38.9319 48.2598 39.2737 46.2965 40.4175L36.6149 46.0562C35.0612 46.9616 33.4327 47.212 31.6581 46.9295C31.657 46.9293 31.6559 46.9291 31.6548 46.9289L30.4545 46.7337C30.4541 46.7335 30.4537 46.7335 30.4532 46.7334C30.4402 46.7314 30.4271 46.7289 30.4142 46.7263C30.4137 46.7262 30.4133 46.726 30.4128 46.7259C28.2278 46.2774 26.2012 45.6174 23.9525 45.013C23.4367 44.8744 23.1304 44.3431 23.269 43.8273C23.4076 43.3114 23.9389 43.0051 24.4547 43.1438C26.6509 43.734 28.6306 44.3813 30.7627 44.8219C31.8408 44.9413 32.6303 44.4955 32.8782 43.572L32.8783 43.5716C33.1296 42.6375 32.5442 41.7321 31.6369 41.41C27.7562 40.6978 23.9578 39.0876 21.6282 38.3321L21.6278 38.332C19.8204 37.7452 18.1658 38.496 16.5203 39.4477L9.39868 43.5708ZM6.13711 41.7374L6.13651 41.7363C6.01106 41.518 5.73077 41.4387 5.5117 41.5623L2.79401 43.101L2.79316 43.1014C2.57493 43.2247 2.49872 43.505 2.62308 43.7242L2.62332 43.7248L10.6084 57.8343L10.6089 57.835C10.7325 58.054 11.0136 58.1303 11.2338 58.007L13.947 56.4693L13.9482 56.4685C14.1673 56.3448 14.2435 56.0635 14.1201 55.8434L6.13711 41.7374ZM5.12315 43.2187C5.73948 43.127 6.31167 43.5525 6.40336 44.1688C6.49143 44.7851 6.06598 45.361 5.44964 45.449C4.83343 45.5408 4.26112 45.1116 4.16943 44.4952C4.08136 43.879 4.50693 43.3067 5.12315 43.2187ZM40.5352 3.17701C41.8967 3.54585 43.2038 4.08743 44.4287 4.7905L46.9305 3.67819C47.2964 3.51549 47.7247 3.59496 48.0079 3.87815L51.4934 7.36364C51.7762 7.64646 51.8558 8.07409 51.6939 8.4399L50.5855 10.942C51.2892 12.1678 51.8309 13.476 52.1999 14.8417L54.7514 15.8236C55.125 15.9674 55.3716 16.3265 55.3716 16.7269V21.6571C55.3716 22.0575 55.125 22.4166 54.7514 22.5603C54.7514 22.5603 52.1994 23.5425 52.1994 23.5424C51.8299 24.9039 51.2855 26.2109 50.5851 27.4358L51.6939 29.9391C51.8558 30.3048 51.7762 30.7326 51.4934 31.0154L48.0079 34.5009C47.7251 34.7837 47.2974 34.8634 46.9317 34.7015L44.4301 33.5934C43.2076 34.2966 41.8973 34.8382 40.5349 35.2071L39.5528 37.759C39.409 38.1325 39.0499 38.379 38.6496 38.379H33.7193C33.319 38.379 32.96 38.1325 32.8161 37.759C32.8161 37.759 31.8341 35.2074 31.8342 35.2074C30.4688 34.8378 29.1611 34.2932 27.9358 33.5925L25.4323 34.7015C25.0666 34.8634 24.6389 34.7837 24.356 34.5009L20.8706 31.0154C20.5874 30.7322 20.5079 30.3039 20.6706 29.9379L21.7827 27.4369C21.0797 26.2147 20.538 24.9049 20.1659 23.543L17.6126 22.5603C17.2389 22.4166 16.9924 22.0575 16.9924 21.6571V16.7269C16.9924 16.3265 17.2389 15.9674 17.6126 15.8236C17.6126 15.8236 20.1655 14.8411 20.1655 14.8412C20.5376 13.4758 21.0796 12.1682 21.783 10.9427L20.6706 8.44111C20.5079 8.07518 20.5874 7.64682 20.8706 7.36364L24.356 3.87815C24.6392 3.59496 25.0676 3.51549 25.4335 3.67819L27.9353 4.7905C29.1606 4.08719 30.4679 3.54561 31.8296 3.17677L32.8165 0.619362C32.9604 0.246172 33.3192 0 33.7193 0H38.6496C39.0502 0 39.4093 0.246777 39.553 0.620572L40.5352 3.17701ZM38.9081 4.33856L37.9848 1.93551H34.3832L33.4553 4.33989C33.3405 4.63735 33.0865 4.85921 32.7763 4.933C31.268 5.29143 29.8294 5.88733 28.5072 6.70205C28.2353 6.8696 27.8983 6.89222 27.6064 6.76242L25.2546 5.71676L22.7093 8.26219L23.7549 10.614C23.8847 10.9057 23.8621 11.2429 23.6946 11.5148C22.8794 12.8376 22.2833 14.277 21.92 15.7908C21.8457 16.1005 21.6238 16.3538 21.3266 16.4681L18.9279 17.3914V20.9926L21.3266 21.9159C21.6236 22.0301 21.8453 22.2831 21.9198 22.5924C22.2831 24.1013 22.8788 25.5451 23.6937 26.8629C23.862 27.1351 23.885 27.4728 23.7549 27.7651L22.7093 30.1168L25.2553 32.6629L27.6076 31.621C27.8984 31.4921 28.2339 31.5145 28.5052 31.6806C29.8278 32.491 31.2669 33.0922 32.7806 33.4509C33.0915 33.5246 33.346 33.7468 33.4607 34.045L34.3838 36.4435H37.9851L38.9083 34.045C39.0229 33.747 39.2771 33.5248 39.5877 33.451C41.0955 33.0927 42.5384 32.4972 43.8554 31.6827C44.1271 31.5146 44.4643 31.4915 44.7564 31.621L47.1086 32.6629L49.6554 30.1161L48.6135 27.7639C48.4847 27.4731 48.5069 27.1376 48.6731 26.8664C49.4836 25.5435 50.0848 24.1044 50.4435 22.5952C50.5173 22.2847 50.7395 22.0304 51.0374 21.9159L53.4361 20.9926V17.3914L51.0374 16.4681C50.7393 16.3535 50.517 16.0989 50.4433 15.7882C50.0849 14.2752 49.4891 12.8368 48.6743 11.5148C48.507 11.2432 48.4843 10.9067 48.6135 10.6152L49.6554 8.26292L47.1094 5.71676L44.7576 6.76242C44.4657 6.89222 44.1287 6.8696 43.8568 6.70205C42.5346 5.88733 41.0961 5.29143 39.5877 4.933C39.277 4.85909 39.0227 4.63675 38.9081 4.33856ZM36.182 8.22675C41.7617 8.22675 46.3012 12.8853 46.3012 18.6507C46.3012 20.8488 45.641 22.8852 44.5159 24.5641L45.0115 28.8003C45.0487 29.118 44.9266 29.4335 44.6851 29.6433C44.4437 29.853 44.1143 29.9301 43.805 29.8489C43.805 29.8489 39.133 28.624 39.1331 28.624C38.1989 28.9153 37.2094 29.0746 36.182 29.0746C30.6023 29.0746 26.0628 24.4162 26.0628 18.6507C26.0628 12.8853 30.6023 8.22675 36.182 8.22675ZM36.182 10.1623C31.6535 10.1623 27.9983 13.9713 27.9983 18.6507C27.9983 23.33 31.6535 27.1391 36.182 27.1391C37.0938 27.1391 37.9685 26.9828 38.7875 26.7006C38.9683 26.6384 39.1633 26.631 39.3481 26.6795L42.9244 27.6171L42.5509 24.4245C42.5227 24.1836 42.5861 23.9406 42.7285 23.7441C43.7576 22.3245 44.3657 20.562 44.3657 18.6507C44.3657 13.9713 40.7105 10.1623 36.182 10.1623ZM36.182 16.8044C37.0188 16.8044 37.6983 17.4838 37.6983 18.3207C37.6983 19.1575 37.0188 19.837 36.182 19.837C35.3451 19.837 34.6658 19.1575 34.6658 18.3207C34.6658 17.4838 35.3451 16.8044 36.182 16.8044ZM40.5208 16.8044C41.3577 16.8044 42.037 17.4838 42.037 18.3207C42.037 19.1575 41.3577 19.837 40.5208 19.837C39.6839 19.837 39.0044 19.1575 39.0044 18.3207C39.0044 17.4838 39.6839 16.8044 40.5208 16.8044ZM31.8432 16.8044C32.68 16.8044 33.3595 17.4838 33.3595 18.3207C33.3595 19.1575 32.68 19.837 31.8432 19.837C31.0063 19.837 30.327 19.1575 30.327 18.3207C30.327 17.4838 31.0063 16.8044 31.8432 16.8044Z" fill="black"/>
</svg>
