<svg width="70" height="59" viewBox="0 0 70 59" fill="none" xmlns="http://www.w3.org/2000/svg">
<path d="M69.3679 57.5171V57.6997C65.3873 59.1483 61.3195 59.2397 57.5173 58.5133C49.3817 56.882 43.8113 52.1708 38.8593 41.7563C32.4919 28.1707 34.4387 32.0641 27.0087 16.3034L25.5061 44.1099C25.4189 46.1936 25.8589 47.1898 27.0087 47.1898V47.3724H23.2937V47.1898H23.3808C24.5306 47.1898 24.7963 45.0147 24.7963 44.1099L26.2989 14.9419C22.3182 6.42858 17.8104 1.98719 12.1487 0.721182C8.525 -0.0923819 5.07566 -0.00521172 0.742188 1.35626V1.17362C4.72284 -0.183699 8.79066 -0.275017 12.5928 0.447228C18.7817 1.62607 23.2937 4.61467 27.183 10.6832H27.2702V10.7745C28.42 12.6756 29.5697 14.7593 30.7195 17.2042C33.9032 23.9078 37.1741 30.9725 40.5362 38.1285L51.2371 10.8658L51.3243 10.6832H56.0977V10.8658C55.0351 10.8658 54.151 11.7707 54.151 12.8582C54.151 12.8582 55.3008 34.1437 55.8321 42.6571C56.0106 45.5544 56.9819 47.1856 57.866 47.1856H57.9531V47.3683H50.9673V47.1856C52.0299 47.1856 53.1797 45.5544 53.0884 42.5658L51.4073 12.493V12.4016L40.8849 38.9421L43.006 43.4706C46.8953 51.8055 52.2042 56.8778 57.949 58.1438C61.5851 58.9657 65.0345 58.8744 69.3679 57.5171Z" fill="black"/>
</svg>
